<svg width="118" xmlns="http://www.w3.org/2000/svg" height="17" id="screenshot-152a06f3-aa49-8033-8006-3725afaabfea" viewBox="0 0 118 17" xmlns:xlink="http://www.w3.org/1999/xlink" fill="none" version="1.1"><g id="shape-152a06f3-aa49-8033-8006-3725afaabfea" width="118" height="17" rx="0" ry="0" style="fill: rgb(0, 0, 0);"><g id="shape-152a06f3-aa49-8033-8006-3725afab5130" style="display: none;"><g class="fills" id="fills-152a06f3-aa49-8033-8006-3725afab5130"><rect width="118" height="17" x="0" transform="matrix(1.000000, 0.000000, 0.000000, 1.000000, 0.000000, 0.000000)" style="fill: none;" ry="0" fill="none" rx="0" y="0"/></g></g><g id="shape-152a06f3-aa49-8033-8006-3725afad05d2"><g class="fills" id="fills-152a06f3-aa49-8033-8006-3725afad05d2"><path d="M1.244,16.158C1.097,16.158,0.973,16.107,0.870,16.004C0.767,15.901,0.716,15.777,0.716,15.630L0.716,1.308C0.716,1.147,0.767,1.015,0.870,0.912C0.973,0.810,1.097,0.758,1.244,0.758L6.942,0.758C8.717,0.758,10.117,1.169,11.144,1.990C12.171,2.812,12.684,4.007,12.684,5.576C12.684,6.662,12.413,7.564,11.870,8.282C11.342,9.001,10.631,9.522,9.736,9.844L12.948,15.454C12.992,15.542,13.014,15.623,13.014,15.696C13.014,15.828,12.963,15.938,12.860,16.026C12.772,16.114,12.669,16.158,12.552,16.158L10.550,16.158C10.301,16.158,10.110,16.092,9.978,15.960C9.846,15.828,9.743,15.696,9.670,15.564L6.832,10.350L3.774,10.350L3.774,15.630C3.774,15.777,3.723,15.901,3.620,16.004C3.532,16.107,3.407,16.158,3.246,16.158L1.244,16.158ZZM3.774,7.864L6.876,7.864C7.771,7.864,8.438,7.666,8.878,7.270C9.318,6.860,9.538,6.288,9.538,5.554C9.538,4.821,9.318,4.249,8.878,3.838C8.453,3.413,7.785,3.200,6.876,3.200L3.774,3.200L3.774,7.864ZZM18.687,16.158C18.540,16.158,18.415,16.107,18.313,16.004C18.210,15.901,18.159,15.777,18.159,15.630L18.159,1.308C18.159,1.147,18.210,1.015,18.313,0.912C18.415,0.810,18.540,0.758,18.687,0.758L28.367,0.758C28.528,0.758,28.660,0.810,28.763,0.912C28.865,1.015,28.917,1.147,28.917,1.308L28.917,2.760C28.917,2.907,28.865,3.032,28.763,3.134C28.660,3.237,28.528,3.288,28.367,3.288L21.129,3.288L21.129,7.182L27.883,7.182C28.044,7.182,28.176,7.234,28.279,7.336C28.381,7.424,28.433,7.549,28.433,7.710L28.433,9.074C28.433,9.236,28.381,9.368,28.279,9.470C28.176,9.558,28.044,9.602,27.883,9.602L21.129,9.602L21.129,13.628L28.543,13.628C28.704,13.628,28.836,13.680,28.939,13.782C29.041,13.885,29.093,14.017,29.093,14.178L29.093,15.630C29.093,15.777,29.041,15.901,28.939,16.004C28.836,16.107,28.704,16.158,28.543,16.158L18.687,16.158ZZM35.034,16.158C34.873,16.158,34.741,16.107,34.638,16.004C34.536,15.901,34.484,15.777,34.484,15.630L34.484,1.308C34.484,1.147,34.536,1.015,34.638,0.912C34.741,0.810,34.873,0.758,35.034,0.758L36.772,0.758C36.978,0.758,37.132,0.817,37.234,0.934C37.337,1.037,37.403,1.118,37.432,1.176L41.678,9.096L45.968,1.176C45.998,1.118,46.064,1.037,46.166,0.934C46.269,0.817,46.423,0.758,46.628,0.758L48.344,0.758C48.506,0.758,48.638,0.810,48.740,0.912C48.843,1.015,48.894,1.147,48.894,1.308L48.894,15.630C48.894,15.777,48.843,15.901,48.740,16.004C48.638,16.107,48.506,16.158,48.344,16.158L46.496,16.158C46.335,16.158,46.203,16.107,46.100,16.004C46.012,15.901,45.968,15.777,45.968,15.630L45.968,6.104L42.888,11.978C42.815,12.110,42.720,12.228,42.602,12.330C42.485,12.418,42.331,12.462,42.140,12.462L41.238,12.462C41.033,12.462,40.872,12.418,40.754,12.330C40.652,12.228,40.564,12.110,40.490,11.978L37.410,6.104L37.410,15.630C37.410,15.777,37.359,15.901,37.256,16.004C37.154,16.107,37.029,16.158,36.882,16.158L35.034,16.158ZZM54.010,16.158C53.893,16.158,53.783,16.114,53.680,16.026C53.592,15.938,53.548,15.828,53.548,15.696C53.548,15.637,53.563,15.572,53.592,15.498L58.894,1.308C58.938,1.162,59.019,1.037,59.136,0.934C59.268,0.817,59.444,0.758,59.664,0.758L62.062,0.758C62.282,0.758,62.451,0.817,62.568,0.934C62.686,1.037,62.774,1.162,62.832,1.308L68.134,15.498C68.149,15.572,68.156,15.637,68.156,15.696C68.156,15.828,68.112,15.938,68.024,16.026C67.936,16.114,67.834,16.158,67.716,16.158L65.802,16.158C65.597,16.158,65.443,16.114,65.340,16.026C65.252,15.923,65.194,15.828,65.164,15.740L64.130,13.056L57.596,13.056L56.562,15.740C56.533,15.828,56.467,15.923,56.364,16.026C56.276,16.114,56.130,16.158,55.924,16.158L54.010,16.158ZZM58.366,10.526L63.360,10.526L60.852,3.728L58.366,10.526ZZM75.155,16.158C75.008,16.158,74.884,16.107,74.781,16.004C74.678,15.901,74.627,15.777,74.627,15.630L74.627,3.464L70.557,3.464C70.410,3.464,70.286,3.413,70.183,3.310C70.080,3.208,70.029,3.083,70.029,2.936L70.029,1.308C70.029,1.147,70.080,1.015,70.183,0.912C70.286,0.810,70.410,0.758,70.557,0.758L81.777,0.758C81.938,0.758,82.070,0.810,82.173,0.912C82.276,1.015,82.327,1.147,82.327,1.308L82.327,2.936C82.327,3.083,82.276,3.208,82.173,3.310C82.070,3.413,81.938,3.464,81.777,3.464L77.729,3.464L77.729,15.630C77.729,15.777,77.678,15.901,77.575,16.004C77.472,16.107,77.340,16.158,77.179,16.158L75.155,16.158ZZM92.860,16.378C91.496,16.378,90.337,16.144,89.384,15.674C88.445,15.190,87.727,14.508,87.228,13.628C86.729,12.733,86.451,11.663,86.392,10.416C86.377,9.815,86.370,9.170,86.370,8.480C86.370,7.791,86.377,7.131,86.392,6.500C86.451,5.268,86.729,4.205,87.228,3.310C87.741,2.416,88.467,1.734,89.406,1.264C90.359,0.780,91.511,0.538,92.860,0.538C93.857,0.538,94.752,0.670,95.544,0.934C96.336,1.198,97.011,1.565,97.568,2.034C98.125,2.489,98.558,3.024,98.866,3.640C99.174,4.256,99.335,4.924,99.350,5.642C99.365,5.774,99.321,5.884,99.218,5.972C99.130,6.060,99.020,6.104,98.888,6.104L96.798,6.104C96.637,6.104,96.505,6.068,96.402,5.994C96.299,5.906,96.226,5.767,96.182,5.576C95.947,4.608,95.544,3.948,94.972,3.596C94.400,3.244,93.689,3.068,92.838,3.068C91.855,3.068,91.071,3.347,90.484,3.904C89.897,4.447,89.582,5.349,89.538,6.610C89.494,7.813,89.494,9.045,89.538,10.306C89.582,11.567,89.897,12.477,90.484,13.034C91.071,13.577,91.855,13.848,92.838,13.848C93.689,13.848,94.400,13.672,94.972,13.320C95.544,12.954,95.947,12.293,96.182,11.340C96.226,11.135,96.299,10.995,96.402,10.922C96.505,10.849,96.637,10.812,96.798,10.812L98.888,10.812C99.020,10.812,99.130,10.856,99.218,10.944C99.321,11.032,99.365,11.142,99.350,11.274C99.335,11.993,99.174,12.660,98.866,13.276C98.558,13.892,98.125,14.435,97.568,14.904C97.011,15.359,96.336,15.718,95.544,15.982C94.752,16.246,93.857,16.378,92.860,16.378ZZM105.127,16.158C104.980,16.158,104.856,16.114,104.753,16.026C104.650,15.923,104.599,15.791,104.599,15.630L104.599,1.308C104.599,1.147,104.650,1.015,104.753,0.912C104.856,0.810,104.980,0.758,105.127,0.758L107.129,0.758C107.290,0.758,107.415,0.810,107.503,0.912C107.606,1.015,107.657,1.147,107.657,1.308L107.657,6.984L114.147,6.984L114.147,1.308C114.147,1.147,114.198,1.015,114.301,0.912C114.404,0.810,114.528,0.758,114.675,0.758L116.655,0.758C116.816,0.758,116.948,0.810,117.051,0.912C117.154,1.015,117.205,1.147,117.205,1.308L117.205,15.630C117.205,15.777,117.154,15.901,117.051,16.004C116.948,16.107,116.816,16.158,116.655,16.158L114.675,16.158C114.528,16.158,114.404,16.107,114.301,16.004C114.198,15.901,114.147,15.777,114.147,15.630L114.147,9.734L107.657,9.734L107.657,15.630C107.657,15.777,107.606,15.901,107.503,16.004C107.415,16.107,107.290,16.158,107.129,16.158L105.127,16.158ZZ" style="fill: rgb(5, 42, 75);"/></g></g></g></svg>